<?xml version="1.0" standalone="no"?>
<!DOCTYPE svg PUBLIC "-//W3C//DTD SVG 20010904//EN"
 "http://www.w3.org/TR/2001/REC-SVG-20010904/DTD/svg10.dtd">
<svg version="1.0" xmlns="http://www.w3.org/2000/svg"
 width="700.000000pt" height="700.000000pt" viewBox="0 0 700.000000 700.000000"
 preserveAspectRatio="xMidYMid meet">
<metadata>
Created by potrace 1.11, written by Peter Selinger 2001-2013
</metadata>
<g transform="translate(0.000000,700.000000) scale(0.100000,-0.100000)"
fill="#000000" stroke="none">
<path d="M3333 6840 c-123 -126 -149 -148 -164 -140 -10 6 -79 53 -153 105
-75 52 -150 101 -166 110 -29 15 -31 15 -53 -8 -12 -13 -67 -94 -122 -180 -55
-86 -104 -156 -108 -157 -5 0 -86 33 -181 74 -198 86 -218 92 -233 74 -6 -7
-46 -99 -88 -205 l-76 -191 -31 9 c-17 5 -49 11 -72 15 -22 3 -44 7 -47 10 -8
4 -197 44 -246 51 -44 7 -47 0 -79 -187 -20 -112 -46 -235 -50 -239 -3 -3 -98
-5 -211 -3 -151 2 -209 0 -220 -9 -12 -11 -14 -47 -12 -220 2 -115 1 -211 -3
-214 -3 -3 -18 -8 -34 -11 -39 -6 -124 -22 -150 -28 -12 -2 -39 -7 -60 -10
-159 -25 -189 -39 -181 -85 15 -89 69 -339 76 -357 5 -11 6 -25 3 -31 -4 -5
-86 -40 -182 -77 -228 -88 -238 -95 -210 -144 15 -26 150 -350 150 -359 0 -4
-39 -33 -87 -63 -183 -116 -268 -176 -269 -190 0 -14 70 -122 190 -293 48 -69
50 -81 13 -108 -5 -3 -67 -64 -138 -134 -90 -89 -129 -135 -129 -151 0 -12 4
-24 9 -26 10 -3 256 -242 279 -270 14 -17 11 -22 -128 -218 -81 -114 -102
-154 -87 -172 6 -9 73 -55 147 -103 194 -125 200 -129 200 -139 0 -4 -37 -94
-82 -198 -62 -144 -79 -194 -72 -206 6 -9 73 -41 150 -72 243 -97 254 -102
249 -109 -2 -4 -7 -22 -10 -40 -3 -19 -19 -92 -35 -165 -46 -207 -47 -214 -19
-225 21 -9 171 -39 279 -56 19 -3 42 -8 50 -10 8 -2 28 -6 44 -9 16 -3 31 -8
34 -11 4 -3 5 -99 4 -214 -3 -172 -1 -210 12 -220 10 -9 69 -11 213 -10 109 1
203 1 209 0 6 0 15 -16 18 -33 8 -37 52 -274 61 -327 12 -71 24 -79 100 -61
22 5 51 11 65 14 14 2 59 12 100 21 41 9 101 22 132 29 l57 13 78 -195 c49
-123 84 -197 96 -204 15 -7 37 -2 96 23 42 18 80 36 86 41 5 4 15 8 22 8 11 0
116 45 165 71 10 5 23 9 30 9 7 0 63 -77 123 -171 61 -94 117 -174 125 -179
21 -10 32 -5 129 63 240 168 242 169 259 155 8 -7 68 -67 131 -132 153 -157
152 -156 172 -156 14 0 134 115 257 247 57 60 51 61 159 -13 54 -37 121 -84
148 -104 28 -20 64 -44 82 -53 29 -16 33 -15 51 1 10 9 66 90 123 179 57 90
108 163 113 163 5 0 93 -36 197 -81 150 -64 191 -78 207 -70 12 6 40 64 77
158 31 81 67 169 79 194 l21 47 75 -18 c142 -33 318 -70 334 -70 18 0 33 24
40 66 17 92 46 256 52 289 14 87 -4 81 228 77 157 -3 210 -1 222 9 13 11 15
44 12 220 -1 114 0 210 3 214 4 3 19 8 35 11 16 3 61 11 99 19 39 7 113 21
165 31 108 19 130 28 130 52 0 10 -19 106 -43 214 l-43 197 70 29 c39 16 127
51 195 78 150 59 154 64 113 155 -16 35 -33 75 -37 89 -4 14 -11 30 -15 35 -5
6 -21 42 -36 80 -15 39 -31 74 -35 80 -23 24 0 46 148 140 182 116 206 136
195 162 -7 18 -51 85 -170 254 -34 50 -60 95 -56 100 3 5 62 65 131 132 164
159 163 158 163 178 0 13 -182 204 -227 238 -4 4 -23 23 -42 43 l-34 37 25 33
c87 114 217 319 211 333 -3 9 -38 37 -77 63 -39 25 -116 75 -171 110 -55 36
-102 67 -104 69 -5 4 25 81 69 178 15 33 42 97 60 143 30 72 32 84 20 96 -8 8
-101 49 -207 91 l-191 76 9 32 c4 18 10 43 13 57 2 14 18 89 35 168 17 78 31
149 31 157 0 16 -32 36 -64 39 -33 4 -263 47 -321 60 l-49 11 2 211 c3 178 1
213 -12 223 -11 9 -67 12 -213 10 -109 -1 -203 -1 -209 0 -11 1 -18 23 -30 91
-50 283 -61 329 -79 336 -8 3 -69 -6 -137 -21 -68 -15 -136 -29 -153 -32 -16
-2 -53 -10 -82 -18 l-52 -13 -78 195 c-88 222 -93 227 -164 195 -99 -45 -328
-142 -336 -142 -4 0 -26 28 -48 63 -121 190 -188 287 -198 288 -28 3 -49 -9
-205 -118 l-166 -116 -147 152 c-97 99 -155 151 -169 151 -13 0 -71 -52 -167
-150z"/>
</g>
</svg>
